<?xml version="1.0" encoding="UTF-8" standalone="no"?>
<!DOCTYPE svg PUBLIC "-//W3C//DTD SVG 1.1//EN"
 "http://www.w3.org/Graphics/SVG/1.1/DTD/svg11.dtd">
<!-- Generated by graphviz version 2.50.0 (20211204.2007)
 -->
<!-- Pages: 1 -->
<svg width="2052pt" height="476pt"
 viewBox="0.00 0.00 2051.50 476.00" xmlns="http://www.w3.org/2000/svg" xmlns:xlink="http://www.w3.org/1999/xlink">
<g id="graph0" class="graph" transform="scale(1 1) rotate(0) translate(4 472)">
<polygon fill="white" stroke="transparent" points="-4,4 -4,-472 2047.5,-472 2047.5,4 -4,4"/>
<!-- [root] aws_internet_gateway.igw (expand) -->
<g id="node1" class="node">
<title>[root] aws_internet_gateway.igw (expand)</title>
<polygon fill="none" stroke="black" points="933,-180 772,-180 772,-144 933,-144 933,-180"/>
<text text-anchor="middle" x="852.5" y="-158.3" font-family="Times,serif" font-size="14.00">aws_internet_gateway.igw</text>
</g>
<!-- [root] aws_vpc.vpc (expand) -->
<g id="node14" class="node">
<title>[root] aws_vpc.vpc (expand)</title>
<polygon fill="none" stroke="black" points="1271,-108 1184,-108 1184,-72 1271,-72 1271,-108"/>
<text text-anchor="middle" x="1227.5" y="-86.3" font-family="Times,serif" font-size="14.00">aws_vpc.vpc</text>
</g>
<!-- [root] aws_internet_gateway.igw (expand)&#45;&gt;[root] aws_vpc.vpc (expand) -->
<g id="edge1" class="edge">
<title>[root] aws_internet_gateway.igw (expand)&#45;&gt;[root] aws_vpc.vpc (expand)</title>
<path fill="none" stroke="black" d="M933.41,-145.9C1006.12,-132.32 1110.85,-112.77 1173.74,-101.04"/>
<polygon fill="black" stroke="black" points="1174.65,-104.43 1183.84,-99.15 1173.36,-97.54 1174.65,-104.43"/>
</g>
<!-- [root] provider[&quot;registry.terraform.io/hashicorp/aws&quot;] -->
<g id="node15" class="node">
<title>[root] provider[&quot;registry.terraform.io/hashicorp/aws&quot;]</title>
<polygon fill="none" stroke="black" points="1037.5,-36 784.96,-18 1037.5,0 1290.04,-18 1037.5,-36"/>
<text text-anchor="middle" x="1037.5" y="-14.3" font-family="Times,serif" font-size="14.00">provider[&quot;registry.terraform.io/hashicorp/aws&quot;]</text>
</g>
<!-- [root] aws_internet_gateway.igw (expand)&#45;&gt;[root] provider[&quot;registry.terraform.io/hashicorp/aws&quot;] -->
<g id="edge2" class="edge">
<title>[root] aws_internet_gateway.igw (expand)&#45;&gt;[root] provider[&quot;registry.terraform.io/hashicorp/aws&quot;]</title>
<path fill="none" stroke="black" d="M868.66,-143.73C886.81,-124.86 917.65,-94.34 947.5,-72 963.79,-59.81 983.09,-48.12 999.64,-38.84"/>
<polygon fill="black" stroke="black" points="1001.44,-41.84 1008.51,-33.94 998.06,-35.71 1001.44,-41.84"/>
</g>
<!-- [root] aws_route_table.private_rtb (expand) -->
<g id="node2" class="node">
<title>[root] aws_route_table.private_rtb (expand)</title>
<polygon fill="none" stroke="black" points="684.5,-180 516.5,-180 516.5,-144 684.5,-144 684.5,-180"/>
<text text-anchor="middle" x="600.5" y="-158.3" font-family="Times,serif" font-size="14.00">aws_route_table.private_rtb</text>
</g>
<!-- [root] aws_route_table.private_rtb (expand)&#45;&gt;[root] aws_vpc.vpc (expand) -->
<g id="edge3" class="edge">
<title>[root] aws_route_table.private_rtb (expand)&#45;&gt;[root] aws_vpc.vpc (expand)</title>
<path fill="none" stroke="black" d="M684.73,-151.6C815.61,-136.98 1064.08,-109.24 1173.49,-97.03"/>
<polygon fill="black" stroke="black" points="1174.08,-100.49 1183.63,-95.9 1173.31,-93.53 1174.08,-100.49"/>
</g>
<!-- [root] aws_route_table.private_rtb (expand)&#45;&gt;[root] provider[&quot;registry.terraform.io/hashicorp/aws&quot;] -->
<g id="edge4" class="edge">
<title>[root] aws_route_table.private_rtb (expand)&#45;&gt;[root] provider[&quot;registry.terraform.io/hashicorp/aws&quot;]</title>
<path fill="none" stroke="black" d="M619.47,-143.89C643.33,-123.38 686.42,-89.57 729.5,-72 785.55,-49.15 851.23,-36.15 907.51,-28.75"/>
<polygon fill="black" stroke="black" points="908.06,-32.21 917.54,-27.48 907.18,-25.27 908.06,-32.21"/>
</g>
<!-- [root] aws_route_table.public_rtb (expand) -->
<g id="node3" class="node">
<title>[root] aws_route_table.public_rtb (expand)</title>
<polygon fill="none" stroke="black" points="953.5,-252 789.5,-252 789.5,-216 953.5,-216 953.5,-252"/>
<text text-anchor="middle" x="871.5" y="-230.3" font-family="Times,serif" font-size="14.00">aws_route_table.public_rtb</text>
</g>
<!-- [root] aws_route_table.public_rtb (expand)&#45;&gt;[root] aws_internet_gateway.igw (expand) -->
<g id="edge5" class="edge">
<title>[root] aws_route_table.public_rtb (expand)&#45;&gt;[root] aws_internet_gateway.igw (expand)</title>
<path fill="none" stroke="black" d="M866.8,-215.7C864.69,-207.9 862.14,-198.51 859.78,-189.83"/>
<polygon fill="black" stroke="black" points="863.14,-188.84 857.14,-180.1 856.38,-190.67 863.14,-188.84"/>
</g>
<!-- [root] aws_route_table.public_rtb (expand)&#45;&gt;[root] aws_vpc.vpc (expand) -->
<g id="edge6" class="edge">
<title>[root] aws_route_table.public_rtb (expand)&#45;&gt;[root] aws_vpc.vpc (expand)</title>
<path fill="none" stroke="black" d="M914.44,-215.87C979.88,-189.77 1104.4,-140.1 1175.08,-111.91"/>
<polygon fill="black" stroke="black" points="1176.69,-115.03 1184.68,-108.08 1174.1,-108.53 1176.69,-115.03"/>
</g>
<!-- [root] aws_route_table.public_rtb (expand)&#45;&gt;[root] provider[&quot;registry.terraform.io/hashicorp/aws&quot;] -->
<g id="edge7" class="edge">
<title>[root] aws_route_table.public_rtb (expand)&#45;&gt;[root] provider[&quot;registry.terraform.io/hashicorp/aws&quot;]</title>
<path fill="none" stroke="black" d="M901.04,-215.84C914.82,-206.64 930.55,-194.27 941.5,-180 973.07,-138.89 957.04,-115.32 985.5,-72 992.69,-61.06 1002.36,-50.46 1011.41,-41.65"/>
<polygon fill="black" stroke="black" points="1013.91,-44.1 1018.8,-34.7 1009.11,-39 1013.91,-44.1"/>
</g>
<!-- [root] aws_route_table_association.rt_assoc_private_a (expand) -->
<g id="node4" class="node">
<title>[root] aws_route_table_association.rt_assoc_private_a (expand)</title>
<polygon fill="none" stroke="black" points="277,-252 0,-252 0,-216 277,-216 277,-252"/>
<text text-anchor="middle" x="138.5" y="-230.3" font-family="Times,serif" font-size="14.00">aws_route_table_association.rt_assoc_private_a</text>
</g>
<!-- [root] aws_route_table_association.rt_assoc_private_a (expand)&#45;&gt;[root] aws_route_table.private_rtb (expand) -->
<g id="edge8" class="edge">
<title>[root] aws_route_table_association.rt_assoc_private_a (expand)&#45;&gt;[root] aws_route_table.private_rtb (expand)</title>
<path fill="none" stroke="black" d="M250.93,-215.97C329.11,-204.12 432.17,-188.5 506.09,-177.3"/>
<polygon fill="black" stroke="black" points="506.96,-180.71 516.33,-175.75 505.91,-173.79 506.96,-180.71"/>
</g>
<!-- [root] aws_route_table_association.rt_assoc_private_a (expand)&#45;&gt;[root] provider[&quot;registry.terraform.io/hashicorp/aws&quot;] -->
<g id="edge9" class="edge">
<title>[root] aws_route_table_association.rt_assoc_private_a (expand)&#45;&gt;[root] provider[&quot;registry.terraform.io/hashicorp/aws&quot;]</title>
<path fill="none" stroke="black" d="M173.65,-215.92C244.44,-182.33 410.03,-107.84 557.5,-72 663.22,-46.31 785.1,-33.04 879.59,-26.21"/>
<polygon fill="black" stroke="black" points="880.08,-29.68 889.81,-25.49 879.59,-22.7 880.08,-29.68"/>
</g>
<!-- [root] aws_route_table_association.rt_assoc_private_c (expand) -->
<g id="node5" class="node">
<title>[root] aws_route_table_association.rt_assoc_private_c (expand)</title>
<polygon fill="none" stroke="black" points="572,-252 295,-252 295,-216 572,-216 572,-252"/>
<text text-anchor="middle" x="433.5" y="-230.3" font-family="Times,serif" font-size="14.00">aws_route_table_association.rt_assoc_private_c</text>
</g>
<!-- [root] aws_route_table_association.rt_assoc_private_c (expand)&#45;&gt;[root] aws_route_table.private_rtb (expand) -->
<g id="edge10" class="edge">
<title>[root] aws_route_table_association.rt_assoc_private_c (expand)&#45;&gt;[root] aws_route_table.private_rtb (expand)</title>
<path fill="none" stroke="black" d="M474.35,-215.88C497.28,-206.26 526.08,-194.19 550.37,-184.01"/>
<polygon fill="black" stroke="black" points="551.91,-187.16 559.78,-180.07 549.2,-180.71 551.91,-187.16"/>
</g>
<!-- [root] aws_route_table_association.rt_assoc_private_c (expand)&#45;&gt;[root] provider[&quot;registry.terraform.io/hashicorp/aws&quot;] -->
<g id="edge11" class="edge">
<title>[root] aws_route_table_association.rt_assoc_private_c (expand)&#45;&gt;[root] provider[&quot;registry.terraform.io/hashicorp/aws&quot;]</title>
<path fill="none" stroke="black" d="M444.24,-215.98C457.24,-196.49 480.75,-164.59 507.5,-144 567.69,-97.67 589.66,-93.55 662.5,-72 740.78,-48.84 831.34,-35.68 903.85,-28.27"/>
<polygon fill="black" stroke="black" points="904.36,-31.73 913.96,-27.26 903.66,-24.77 904.36,-31.73"/>
</g>
<!-- [root] aws_route_table_association.rt_assoc_public_a (expand) -->
<g id="node6" class="node">
<title>[root] aws_route_table_association.rt_assoc_public_a (expand)</title>
<polygon fill="none" stroke="black" points="978,-324 705,-324 705,-288 978,-288 978,-324"/>
<text text-anchor="middle" x="841.5" y="-302.3" font-family="Times,serif" font-size="14.00">aws_route_table_association.rt_assoc_public_a</text>
</g>
<!-- [root] aws_route_table_association.rt_assoc_public_a (expand)&#45;&gt;[root] aws_route_table.public_rtb (expand) -->
<g id="edge12" class="edge">
<title>[root] aws_route_table_association.rt_assoc_public_a (expand)&#45;&gt;[root] aws_route_table.public_rtb (expand)</title>
<path fill="none" stroke="black" d="M848.92,-287.7C852.29,-279.81 856.37,-270.3 860.12,-261.55"/>
<polygon fill="black" stroke="black" points="863.45,-262.67 864.17,-252.1 857.01,-259.92 863.45,-262.67"/>
</g>
<!-- [root] aws_subnet.public_subnet_a (expand) -->
<g id="node10" class="node">
<title>[root] aws_subnet.public_subnet_a (expand)</title>
<polygon fill="none" stroke="black" points="1199.5,-252 1027.5,-252 1027.5,-216 1199.5,-216 1199.5,-252"/>
<text text-anchor="middle" x="1113.5" y="-230.3" font-family="Times,serif" font-size="14.00">aws_subnet.public_subnet_a</text>
</g>
<!-- [root] aws_route_table_association.rt_assoc_public_a (expand)&#45;&gt;[root] aws_subnet.public_subnet_a (expand) -->
<g id="edge13" class="edge">
<title>[root] aws_route_table_association.rt_assoc_public_a (expand)&#45;&gt;[root] aws_subnet.public_subnet_a (expand)</title>
<path fill="none" stroke="black" d="M907.69,-287.97C946.77,-277.91 996.4,-265.14 1037.13,-254.65"/>
<polygon fill="black" stroke="black" points="1038.2,-257.99 1047.01,-252.11 1036.46,-251.21 1038.2,-257.99"/>
</g>
<!-- [root] aws_route_table_association.rt_assoc_public_a (expand)&#45;&gt;[root] provider[&quot;registry.terraform.io/hashicorp/aws&quot;] -->
<g id="edge14" class="edge">
<title>[root] aws_route_table_association.rt_assoc_public_a (expand)&#45;&gt;[root] provider[&quot;registry.terraform.io/hashicorp/aws&quot;]</title>
<path fill="none" stroke="black" d="M815.29,-287.94C803.02,-278.68 789.23,-266.23 780.5,-252 755.06,-210.52 737.09,-185.5 762.5,-144 802.09,-79.33 884.67,-47.84 949.06,-32.68"/>
<polygon fill="black" stroke="black" points="949.84,-36.09 958.83,-30.47 948.3,-29.26 949.84,-36.09"/>
</g>
<!-- [root] aws_route_table_association.rt_assoc_public_c (expand) -->
<g id="node7" class="node">
<title>[root] aws_route_table_association.rt_assoc_public_c (expand)</title>
<polygon fill="none" stroke="black" points="1269,-324 996,-324 996,-288 1269,-288 1269,-324"/>
<text text-anchor="middle" x="1132.5" y="-302.3" font-family="Times,serif" font-size="14.00">aws_route_table_association.rt_assoc_public_c</text>
</g>
<!-- [root] aws_route_table_association.rt_assoc_public_c (expand)&#45;&gt;[root] aws_route_table.public_rtb (expand) -->
<g id="edge15" class="edge">
<title>[root] aws_route_table_association.rt_assoc_public_c (expand)&#45;&gt;[root] aws_route_table.public_rtb (expand)</title>
<path fill="none" stroke="black" d="M1068.99,-287.97C1031.57,-277.93 984.07,-265.19 945.03,-254.72"/>
<polygon fill="black" stroke="black" points="945.86,-251.32 935.3,-252.11 944.05,-258.08 945.86,-251.32"/>
</g>
<!-- [root] aws_subnet.public_subnet_c (expand) -->
<g id="node11" class="node">
<title>[root] aws_subnet.public_subnet_c (expand)</title>
<polygon fill="none" stroke="black" points="1313.5,-180 1141.5,-180 1141.5,-144 1313.5,-144 1313.5,-180"/>
<text text-anchor="middle" x="1227.5" y="-158.3" font-family="Times,serif" font-size="14.00">aws_subnet.public_subnet_c</text>
</g>
<!-- [root] aws_route_table_association.rt_assoc_public_c (expand)&#45;&gt;[root] aws_subnet.public_subnet_c (expand) -->
<g id="edge16" class="edge">
<title>[root] aws_route_table_association.rt_assoc_public_c (expand)&#45;&gt;[root] aws_subnet.public_subnet_c (expand)</title>
<path fill="none" stroke="black" d="M1168.13,-287.8C1182.74,-279.03 1198.54,-267.01 1208.5,-252 1220.68,-233.65 1225.23,-208.89 1226.85,-190.15"/>
<polygon fill="black" stroke="black" points="1230.34,-190.37 1227.48,-180.16 1223.35,-189.92 1230.34,-190.37"/>
</g>
<!-- [root] aws_route_table_association.rt_assoc_public_c (expand)&#45;&gt;[root] provider[&quot;registry.terraform.io/hashicorp/aws&quot;] -->
<g id="edge17" class="edge">
<title>[root] aws_route_table_association.rt_assoc_public_c (expand)&#45;&gt;[root] provider[&quot;registry.terraform.io/hashicorp/aws&quot;]</title>
<path fill="none" stroke="black" d="M1064.19,-287.94C1046.29,-280.03 1029.06,-268.56 1018.5,-252 977.21,-187.26 1007.32,-90.96 1025.86,-45.1"/>
<polygon fill="black" stroke="black" points="1029.2,-46.17 1029.83,-35.59 1022.74,-43.47 1029.2,-46.17"/>
</g>
<!-- [root] aws_security_group.private_sg (expand) -->
<g id="node8" class="node">
<title>[root] aws_security_group.private_sg (expand)</title>
<polygon fill="none" stroke="black" points="1625,-252 1440,-252 1440,-216 1625,-216 1625,-252"/>
<text text-anchor="middle" x="1532.5" y="-230.3" font-family="Times,serif" font-size="14.00">aws_security_group.private_sg</text>
</g>
<!-- [root] aws_security_group.public_sg (expand) -->
<g id="node9" class="node">
<title>[root] aws_security_group.public_sg (expand)</title>
<polygon fill="none" stroke="black" points="1589.5,-180 1407.5,-180 1407.5,-144 1589.5,-144 1589.5,-180"/>
<text text-anchor="middle" x="1498.5" y="-158.3" font-family="Times,serif" font-size="14.00">aws_security_group.public_sg</text>
</g>
<!-- [root] aws_security_group.private_sg (expand)&#45;&gt;[root] aws_security_group.public_sg (expand) -->
<g id="edge18" class="edge">
<title>[root] aws_security_group.private_sg (expand)&#45;&gt;[root] aws_security_group.public_sg (expand)</title>
<path fill="none" stroke="black" d="M1506.35,-215.7C1500.15,-207.9 1494.92,-198.51 1491.78,-189.83"/>
<polygon fill="black" stroke="black" points="1495.13,-188.83 1489.12,-180.1 1488.38,-190.67 1495.13,-188.83"/>
</g>
<!-- [root] aws_security_group.private_sg (expand)&#45;&gt;[root] aws_security_group.public_sg (expand) -->
<g id="edge19" class="edge">
<title>[root] aws_security_group.private_sg (expand)&#45;&gt;[root] aws_security_group.public_sg (expand)</title>
<path fill="none" stroke="red" stroke-width="2" d="M1518.18,-215.7C1513.54,-207.81 1508.7,-198.3 1504.82,-189.55"/>
<polygon fill="red" stroke="red" stroke-width="2" points="1507.97,-188 1500.91,-180.1 1501.5,-190.68 1507.97,-188"/>
</g>
<!-- [root] aws_security_group.private_sg (expand)&#45;&gt;[root] aws_vpc.vpc (expand) -->
<g id="edge20" class="edge">
<title>[root] aws_security_group.private_sg (expand)&#45;&gt;[root] aws_vpc.vpc (expand)</title>
<path fill="none" stroke="black" d="M1478.15,-215.98C1453.03,-207.01 1423.33,-194.78 1398.5,-180 1377.08,-167.25 1376.82,-156.92 1355.5,-144 1332.18,-129.87 1304.41,-117.86 1280.7,-108.86"/>
<polygon fill="black" stroke="black" points="1281.75,-105.52 1271.16,-105.32 1279.31,-112.08 1281.75,-105.52"/>
</g>
<!-- [root] aws_security_group.private_sg (expand)&#45;&gt;[root] provider[&quot;registry.terraform.io/hashicorp/aws&quot;] -->
<g id="edge21" class="edge">
<title>[root] aws_security_group.private_sg (expand)&#45;&gt;[root] provider[&quot;registry.terraform.io/hashicorp/aws&quot;]</title>
<path fill="none" stroke="black" d="M1564.55,-215.88C1577.62,-207.05 1591.32,-194.97 1598.5,-180 1605.42,-165.57 1608.16,-156.75 1598.5,-144 1546.93,-75.92 1313.46,-42.99 1164.43,-28.65"/>
<polygon fill="black" stroke="black" points="1164.58,-25.15 1154.3,-27.69 1163.92,-32.12 1164.58,-25.15"/>
</g>
<!-- [root] aws_security_group.public_sg (expand)&#45;&gt;[root] aws_security_group.private_sg (expand) -->
<g id="edge22" class="edge">
<title>[root] aws_security_group.public_sg (expand)&#45;&gt;[root] aws_security_group.private_sg (expand)</title>
<path fill="none" stroke="black" d="M1512.7,-180.1C1517.34,-187.96 1522.19,-197.46 1526.08,-206.23"/>
<polygon fill="black" stroke="black" points="1522.94,-207.8 1530.01,-215.7 1529.41,-205.12 1522.94,-207.8"/>
</g>
<!-- [root] aws_security_group.public_sg (expand)&#45;&gt;[root] aws_security_group.private_sg (expand) -->
<g id="edge23" class="edge">
<title>[root] aws_security_group.public_sg (expand)&#45;&gt;[root] aws_security_group.private_sg (expand)</title>
<path fill="none" stroke="red" stroke-width="2" d="M1524.49,-180.1C1530.71,-187.88 1535.97,-197.26 1539.14,-205.95"/>
<polygon fill="red" stroke="red" stroke-width="2" points="1535.8,-207 1541.84,-215.7 1542.54,-205.12 1535.8,-207"/>
</g>
<!-- [root] aws_security_group.public_sg (expand)&#45;&gt;[root] aws_vpc.vpc (expand) -->
<g id="edge24" class="edge">
<title>[root] aws_security_group.public_sg (expand)&#45;&gt;[root] aws_vpc.vpc (expand)</title>
<path fill="none" stroke="black" d="M1432.55,-143.97C1386.04,-131.95 1324.53,-116.06 1281.05,-104.83"/>
<polygon fill="black" stroke="black" points="1281.79,-101.41 1271.23,-102.3 1280.04,-108.19 1281.79,-101.41"/>
</g>
<!-- [root] aws_security_group.public_sg (expand)&#45;&gt;[root] provider[&quot;registry.terraform.io/hashicorp/aws&quot;] -->
<g id="edge25" class="edge">
<title>[root] aws_security_group.public_sg (expand)&#45;&gt;[root] provider[&quot;registry.terraform.io/hashicorp/aws&quot;]</title>
<path fill="none" stroke="black" d="M1462,-143.92C1419.09,-124.37 1345.35,-92.43 1279.5,-72 1226.29,-55.49 1164.97,-42.12 1117.37,-32.94"/>
<polygon fill="black" stroke="black" points="1117.9,-29.48 1107.42,-31.04 1116.59,-36.35 1117.9,-29.48"/>
</g>
<!-- [root] aws_subnet.public_subnet_a (expand)&#45;&gt;[root] aws_vpc.vpc (expand) -->
<g id="edge26" class="edge">
<title>[root] aws_subnet.public_subnet_a (expand)&#45;&gt;[root] aws_vpc.vpc (expand)</title>
<path fill="none" stroke="black" d="M1113.11,-215.9C1113.52,-196.63 1116.83,-165.22 1132.5,-144 1143.1,-129.65 1158.81,-118.67 1174.42,-110.53"/>
<polygon fill="black" stroke="black" points="1176.11,-113.6 1183.56,-106.07 1173.04,-107.31 1176.11,-113.6"/>
</g>
<!-- [root] aws_subnet.public_subnet_a (expand)&#45;&gt;[root] provider[&quot;registry.terraform.io/hashicorp/aws&quot;] -->
<g id="edge27" class="edge">
<title>[root] aws_subnet.public_subnet_a (expand)&#45;&gt;[root] provider[&quot;registry.terraform.io/hashicorp/aws&quot;]</title>
<path fill="none" stroke="black" d="M1107.41,-215.85C1094.14,-178.49 1062.56,-89.56 1046.79,-45.16"/>
<polygon fill="black" stroke="black" points="1050.05,-43.89 1043.41,-35.64 1043.46,-46.24 1050.05,-43.89"/>
</g>
<!-- [root] aws_subnet.public_subnet_c (expand)&#45;&gt;[root] aws_vpc.vpc (expand) -->
<g id="edge28" class="edge">
<title>[root] aws_subnet.public_subnet_c (expand)&#45;&gt;[root] aws_vpc.vpc (expand)</title>
<path fill="none" stroke="black" d="M1227.5,-143.7C1227.5,-135.98 1227.5,-126.71 1227.5,-118.11"/>
<polygon fill="black" stroke="black" points="1231,-118.1 1227.5,-108.1 1224,-118.1 1231,-118.1"/>
</g>
<!-- [root] aws_subnet.public_subnet_c (expand)&#45;&gt;[root] provider[&quot;registry.terraform.io/hashicorp/aws&quot;] -->
<g id="edge29" class="edge">
<title>[root] aws_subnet.public_subnet_c (expand)&#45;&gt;[root] provider[&quot;registry.terraform.io/hashicorp/aws&quot;]</title>
<path fill="none" stroke="black" d="M1204.58,-143.87C1169.99,-118.02 1104.46,-69.04 1066.56,-40.72"/>
<polygon fill="black" stroke="black" points="1068.57,-37.85 1058.46,-34.67 1064.38,-43.46 1068.57,-37.85"/>
</g>
<!-- [root] aws_subnet.subnet_private_a (expand) -->
<g id="node12" class="node">
<title>[root] aws_subnet.subnet_private_a (expand)</title>
<polygon fill="none" stroke="black" points="1821.5,-180 1645.5,-180 1645.5,-144 1821.5,-144 1821.5,-180"/>
<text text-anchor="middle" x="1733.5" y="-158.3" font-family="Times,serif" font-size="14.00">aws_subnet.subnet_private_a</text>
</g>
<!-- [root] aws_subnet.subnet_private_a (expand)&#45;&gt;[root] aws_vpc.vpc (expand) -->
<g id="edge30" class="edge">
<title>[root] aws_subnet.subnet_private_a (expand)&#45;&gt;[root] aws_vpc.vpc (expand)</title>
<path fill="none" stroke="black" d="M1645.36,-148.81C1540.34,-134.28 1368.17,-110.46 1281.27,-98.44"/>
<polygon fill="black" stroke="black" points="1281.49,-94.94 1271.11,-97.03 1280.53,-101.87 1281.49,-94.94"/>
</g>
<!-- [root] aws_subnet.subnet_private_a (expand)&#45;&gt;[root] provider[&quot;registry.terraform.io/hashicorp/aws&quot;] -->
<g id="edge31" class="edge">
<title>[root] aws_subnet.subnet_private_a (expand)&#45;&gt;[root] provider[&quot;registry.terraform.io/hashicorp/aws&quot;]</title>
<path fill="none" stroke="black" d="M1719.77,-143.66C1701.94,-122.58 1668.68,-87.86 1631.5,-72 1561.46,-42.12 1375.8,-29.08 1230.51,-23.39"/>
<polygon fill="black" stroke="black" points="1230.25,-19.88 1220.12,-23 1229.98,-26.87 1230.25,-19.88"/>
</g>
<!-- [root] aws_subnet.subnet_private_c (expand) -->
<g id="node13" class="node">
<title>[root] aws_subnet.subnet_private_c (expand)</title>
<polygon fill="none" stroke="black" points="2015.5,-180 1839.5,-180 1839.5,-144 2015.5,-144 2015.5,-180"/>
<text text-anchor="middle" x="1927.5" y="-158.3" font-family="Times,serif" font-size="14.00">aws_subnet.subnet_private_c</text>
</g>
<!-- [root] aws_subnet.subnet_private_c (expand)&#45;&gt;[root] aws_vpc.vpc (expand) -->
<g id="edge32" class="edge">
<title>[root] aws_subnet.subnet_private_c (expand)&#45;&gt;[root] aws_vpc.vpc (expand)</title>
<path fill="none" stroke="black" d="M1839.26,-145.2C1836.31,-144.78 1833.38,-144.38 1830.5,-144 1628.57,-117.48 1386.8,-100.74 1281.24,-94.17"/>
<polygon fill="black" stroke="black" points="1281.35,-90.67 1271.15,-93.55 1280.92,-97.66 1281.35,-90.67"/>
</g>
<!-- [root] aws_subnet.subnet_private_c (expand)&#45;&gt;[root] provider[&quot;registry.terraform.io/hashicorp/aws&quot;] -->
<g id="edge33" class="edge">
<title>[root] aws_subnet.subnet_private_c (expand)&#45;&gt;[root] provider[&quot;registry.terraform.io/hashicorp/aws&quot;]</title>
<path fill="none" stroke="black" d="M1888.47,-143.97C1839.02,-123.2 1750.67,-88.79 1671.5,-72 1528.3,-41.63 1363.44,-28.5 1237.73,-22.9"/>
<polygon fill="black" stroke="black" points="1237.75,-19.4 1227.61,-22.46 1237.44,-26.39 1237.75,-19.4"/>
</g>
<!-- [root] aws_vpc.vpc (expand)&#45;&gt;[root] provider[&quot;registry.terraform.io/hashicorp/aws&quot;] -->
<g id="edge34" class="edge">
<title>[root] aws_vpc.vpc (expand)&#45;&gt;[root] provider[&quot;registry.terraform.io/hashicorp/aws&quot;]</title>
<path fill="none" stroke="black" d="M1183.91,-72.94C1154.65,-62.16 1116.07,-47.95 1085.86,-36.82"/>
<polygon fill="black" stroke="black" points="1086.97,-33.49 1076.37,-33.32 1084.55,-40.06 1086.97,-33.49"/>
</g>
<!-- [root] provider[&quot;registry.terraform.io/hashicorp/aws&quot;] (close) -->
<g id="node16" class="node">
<title>[root] provider[&quot;registry.terraform.io/hashicorp/aws&quot;] (close)</title>
<ellipse fill="none" stroke="black" cx="1297.5" cy="-378" rx="227.46" ry="18"/>
<text text-anchor="middle" x="1297.5" y="-374.3" font-family="Times,serif" font-size="14.00">[root] provider[&quot;registry.terraform.io/hashicorp/aws&quot;] (close)</text>
</g>
<!-- [root] provider[&quot;registry.terraform.io/hashicorp/aws&quot;] (close)&#45;&gt;[root] aws_internet_gateway.igw (expand) -->
<g id="edge35" class="edge">
<title>[root] provider[&quot;registry.terraform.io/hashicorp/aws&quot;] (close)&#45;&gt;[root] aws_internet_gateway.igw (expand)</title>
<path fill="none" stroke="black" d="M1080.81,-372.44C914.77,-366.63 709.58,-353.51 682.5,-324 633.78,-270.9 734.06,-214.14 800.34,-184.25"/>
<polygon fill="black" stroke="black" points="802.13,-187.28 809.85,-180.03 799.29,-180.88 802.13,-187.28"/>
</g>
<!-- [root] provider[&quot;registry.terraform.io/hashicorp/aws&quot;] (close)&#45;&gt;[root] aws_route_table.private_rtb (expand) -->
<g id="edge36" class="edge">
<title>[root] provider[&quot;registry.terraform.io/hashicorp/aws&quot;] (close)&#45;&gt;[root] aws_route_table.private_rtb (expand)</title>
<path fill="none" stroke="black" d="M1091.39,-370.31C920.61,-363.03 700.52,-348.95 666.5,-324 623.27,-292.29 608.26,-227.17 603.12,-190.2"/>
<polygon fill="black" stroke="black" points="606.57,-189.63 601.86,-180.13 599.63,-190.49 606.57,-189.63"/>
</g>
<!-- [root] provider[&quot;registry.terraform.io/hashicorp/aws&quot;] (close)&#45;&gt;[root] aws_route_table.public_rtb (expand) -->
<g id="edge37" class="edge">
<title>[root] provider[&quot;registry.terraform.io/hashicorp/aws&quot;] (close)&#45;&gt;[root] aws_route_table.public_rtb (expand)</title>
<path fill="none" stroke="black" d="M1082.52,-372.02C920.5,-365.98 721.83,-352.75 695.5,-324 662.49,-287.96 721.01,-264.44 779.25,-250.68"/>
<polygon fill="black" stroke="black" points="780.36,-254.02 789.34,-248.39 778.81,-247.19 780.36,-254.02"/>
</g>
<!-- [root] provider[&quot;registry.terraform.io/hashicorp/aws&quot;] (close)&#45;&gt;[root] aws_route_table_association.rt_assoc_private_a (expand) -->
<g id="edge38" class="edge">
<title>[root] provider[&quot;registry.terraform.io/hashicorp/aws&quot;] (close)&#45;&gt;[root] aws_route_table_association.rt_assoc_private_a (expand)</title>
<path fill="none" stroke="black" d="M1081.27,-372.31C922.11,-366.48 700.87,-353.38 508.5,-324 401.37,-307.64 279.62,-275.7 205.96,-254.87"/>
<polygon fill="black" stroke="black" points="206.47,-251.38 195.9,-252.01 204.56,-258.11 206.47,-251.38"/>
</g>
<!-- [root] provider[&quot;registry.terraform.io/hashicorp/aws&quot;] (close)&#45;&gt;[root] aws_route_table_association.rt_assoc_private_c (expand) -->
<g id="edge39" class="edge">
<title>[root] provider[&quot;registry.terraform.io/hashicorp/aws&quot;] (close)&#45;&gt;[root] aws_route_table_association.rt_assoc_private_c (expand)</title>
<path fill="none" stroke="black" d="M1084.44,-371.63C909.39,-365.27 676.21,-351.81 586.5,-324 540.28,-309.67 493.04,-279.3 463.51,-258.04"/>
<polygon fill="black" stroke="black" points="465.44,-255.12 455.31,-252.04 461.31,-260.77 465.44,-255.12"/>
</g>
<!-- [root] provider[&quot;registry.terraform.io/hashicorp/aws&quot;] (close)&#45;&gt;[root] aws_route_table_association.rt_assoc_public_a (expand) -->
<g id="edge40" class="edge">
<title>[root] provider[&quot;registry.terraform.io/hashicorp/aws&quot;] (close)&#45;&gt;[root] aws_route_table_association.rt_assoc_public_a (expand)</title>
<path fill="none" stroke="black" d="M1198.27,-361.77C1129.09,-351.15 1036.36,-336.91 962.78,-325.62"/>
<polygon fill="black" stroke="black" points="962.94,-322.1 952.53,-324.04 961.88,-329.02 962.94,-322.1"/>
</g>
<!-- [root] provider[&quot;registry.terraform.io/hashicorp/aws&quot;] (close)&#45;&gt;[root] aws_route_table_association.rt_assoc_public_c (expand) -->
<g id="edge41" class="edge">
<title>[root] provider[&quot;registry.terraform.io/hashicorp/aws&quot;] (close)&#45;&gt;[root] aws_route_table_association.rt_assoc_public_c (expand)</title>
<path fill="none" stroke="black" d="M1257.98,-360.23C1235.25,-350.59 1206.49,-338.39 1182.24,-328.1"/>
<polygon fill="black" stroke="black" points="1183.42,-324.8 1172.85,-324.12 1180.68,-331.24 1183.42,-324.8"/>
</g>
<!-- [root] provider[&quot;registry.terraform.io/hashicorp/aws&quot;] (close)&#45;&gt;[root] aws_security_group.private_sg (expand) -->
<g id="edge42" class="edge">
<title>[root] provider[&quot;registry.terraform.io/hashicorp/aws&quot;] (close)&#45;&gt;[root] aws_security_group.private_sg (expand)</title>
<path fill="none" stroke="black" d="M1347.19,-360.42C1371.62,-351.29 1401,-338.79 1425.5,-324 1456.13,-305.51 1487.13,-278.63 1507.82,-259.25"/>
<polygon fill="black" stroke="black" points="1510.38,-261.65 1515.22,-252.23 1505.56,-256.57 1510.38,-261.65"/>
</g>
<!-- [root] provider[&quot;registry.terraform.io/hashicorp/aws&quot;] (close)&#45;&gt;[root] aws_security_group.public_sg (expand) -->
<g id="edge43" class="edge">
<title>[root] provider[&quot;registry.terraform.io/hashicorp/aws&quot;] (close)&#45;&gt;[root] aws_security_group.public_sg (expand)</title>
<path fill="none" stroke="black" d="M1338.35,-360.19C1355.4,-351.49 1374.28,-339.42 1387.5,-324 1421.13,-284.78 1399.49,-257.32 1430.5,-216 1439.02,-204.65 1450.56,-194.43 1461.71,-186.07"/>
<polygon fill="black" stroke="black" points="1464.02,-188.72 1470.11,-180.05 1459.94,-183.03 1464.02,-188.72"/>
</g>
<!-- [root] provider[&quot;registry.terraform.io/hashicorp/aws&quot;] (close)&#45;&gt;[root] aws_subnet.public_subnet_a (expand) -->
<g id="edge44" class="edge">
<title>[root] provider[&quot;registry.terraform.io/hashicorp/aws&quot;] (close)&#45;&gt;[root] aws_subnet.public_subnet_a (expand)</title>
<path fill="none" stroke="black" d="M1298.39,-360C1298.48,-340.22 1295.54,-307.77 1277.5,-288 1259.62,-268.4 1234.45,-256.02 1209.18,-248.21"/>
<polygon fill="black" stroke="black" points="1210.09,-244.83 1199.51,-245.43 1208.16,-251.56 1210.09,-244.83"/>
</g>
<!-- [root] provider[&quot;registry.terraform.io/hashicorp/aws&quot;] (close)&#45;&gt;[root] aws_subnet.public_subnet_c (expand) -->
<g id="edge45" class="edge">
<title>[root] provider[&quot;registry.terraform.io/hashicorp/aws&quot;] (close)&#45;&gt;[root] aws_subnet.public_subnet_c (expand)</title>
<path fill="none" stroke="black" d="M1301.01,-359.93C1304.07,-341.76 1307.08,-312.33 1300.5,-288 1290.33,-250.41 1265.72,-212.52 1247.88,-188.47"/>
<polygon fill="black" stroke="black" points="1250.49,-186.12 1241.66,-180.27 1244.91,-190.35 1250.49,-186.12"/>
</g>
<!-- [root] provider[&quot;registry.terraform.io/hashicorp/aws&quot;] (close)&#45;&gt;[root] aws_subnet.subnet_private_a (expand) -->
<g id="edge46" class="edge">
<title>[root] provider[&quot;registry.terraform.io/hashicorp/aws&quot;] (close)&#45;&gt;[root] aws_subnet.subnet_private_a (expand)</title>
<path fill="none" stroke="black" d="M1365.37,-360.74C1436.07,-341.81 1548.21,-306.07 1633.5,-252 1662.44,-233.65 1691.21,-206.92 1710.41,-187.55"/>
<polygon fill="black" stroke="black" points="1713.05,-189.86 1717.53,-180.26 1708.04,-184.97 1713.05,-189.86"/>
</g>
<!-- [root] provider[&quot;registry.terraform.io/hashicorp/aws&quot;] (close)&#45;&gt;[root] aws_subnet.subnet_private_c (expand) -->
<g id="edge47" class="edge">
<title>[root] provider[&quot;registry.terraform.io/hashicorp/aws&quot;] (close)&#45;&gt;[root] aws_subnet.subnet_private_c (expand)</title>
<path fill="none" stroke="black" d="M1386.05,-361.4C1432.04,-352.33 1488.84,-339.6 1538.5,-324 1666.96,-283.64 1811.99,-217.99 1883.21,-184.35"/>
<polygon fill="black" stroke="black" points="1884.81,-187.46 1892.35,-180.02 1881.81,-181.14 1884.81,-187.46"/>
</g>
<!-- [root] provider[&quot;registry.terraform.io/hashicorp/aws&quot;] (close)&#45;&gt;[root] aws_vpc.vpc (expand) -->
<g id="edge48" class="edge">
<title>[root] provider[&quot;registry.terraform.io/hashicorp/aws&quot;] (close)&#45;&gt;[root] aws_vpc.vpc (expand)</title>
<path fill="none" stroke="black" d="M1305.92,-359.73C1324.49,-318.97 1364.11,-214.87 1322.5,-144 1316.9,-134.46 1296.53,-122.55 1276.08,-112.44"/>
<polygon fill="black" stroke="black" points="1277.57,-109.27 1267.04,-108.08 1274.53,-115.58 1277.57,-109.27"/>
</g>
<!-- [root] provider[&quot;registry.terraform.io/hashicorp/aws&quot;] (close)&#45;&gt;[root] provider[&quot;registry.terraform.io/hashicorp/aws&quot;] -->
<g id="edge49" class="edge">
<title>[root] provider[&quot;registry.terraform.io/hashicorp/aws&quot;] (close)&#45;&gt;[root] provider[&quot;registry.terraform.io/hashicorp/aws&quot;]</title>
<path fill="none" stroke="black" d="M1441.34,-364.01C1658.12,-342.47 2043.5,-295.65 2043.5,-235 2043.5,-235 2043.5,-235 2043.5,-161 2043.5,-76.92 1485.4,-39.31 1200.58,-25.6"/>
<polygon fill="black" stroke="black" points="1200.72,-22.1 1190.56,-25.12 1200.39,-29.09 1200.72,-22.1"/>
</g>
<!-- [root] root -->
<g id="node17" class="node">
<title>[root] root</title>
<ellipse fill="none" stroke="black" cx="1297.5" cy="-450" rx="47.39" ry="18"/>
<text text-anchor="middle" x="1297.5" y="-446.3" font-family="Times,serif" font-size="14.00">[root] root</text>
</g>
<!-- [root] root&#45;&gt;[root] provider[&quot;registry.terraform.io/hashicorp/aws&quot;] (close) -->
<g id="edge50" class="edge">
<title>[root] root&#45;&gt;[root] provider[&quot;registry.terraform.io/hashicorp/aws&quot;] (close)</title>
<path fill="none" stroke="black" d="M1297.5,-431.7C1297.5,-423.98 1297.5,-414.71 1297.5,-406.11"/>
<polygon fill="black" stroke="black" points="1301,-406.1 1297.5,-396.1 1294,-406.1 1301,-406.1"/>
</g>
</g>
</svg>
